<svg xmlns="http://www.w3.org/2000/svg" width="1451.551" height="475" viewBox="0, 0, 1451.551, 475"><g><path d="M1450.803.607v474.477H.373V.607h1450.43z" fill="#A8A9AA"/><path d="M297.277 46.988c0-.07.007-.14.007-.208 0-7-5.677-12.674-12.676-12.674h-.025c-.546-12.938-11.205-23.26-24.278-23.26C246.88 10.845 236 21.725 236 35.15c0 .46.016.917.04 1.372-2.088-1.518-4.657-2.415-7.437-2.415-7 0-12.674 5.675-12.674 12.674 0 5.988 4.152 11.002 9.734 12.33h87.477c0-.003-2.445-10.258-15.863-12.122zM1063.5.607c6.662 6.454 9.916 15.403 10.148 24.55 0 16.49-11.438 30.297-26.812 33.95h-240.91c.002 0 6.73-28.244 43.687-33.377 0-.19-.014-.382-.014-.573.037-9.185 3.647-18.05 10.148-24.55h203.75z" fill="#878787"/><path d="M702.788 46.988c0-.07-.005-.14-.005-.208 0-7 5.676-12.674 12.676-12.674h.024c.546-12.938 11.204-23.26 24.277-23.26 13.425 0 24.306 10.88 24.306 24.304 0 .46-.016.917-.04 1.372 2.09-1.518 4.657-2.415 7.437-2.415 7 0 12.674 5.675 12.674 12.674 0 5.988-4.153 11.002-9.735 12.33h-87.477c.003-.003 2.445-10.258 15.863-12.122zM965.99.607c13.958 5.39 21.43 17.087 22.174 31.796 0 .645-.02 1.286-.06 1.923 2.93-2.127 6.53-3.386 10.43-3.386 9.81 0 17.77 7.956 17.77 17.768 0 8.394-5.824 15.423-13.648 17.283H880.02s3.424-14.378 22.237-16.99c0-.098-.01-.194-.01-.292 0-9.812 7.956-17.768 17.77-17.768h.038c1.063-14.495 8.815-24.858 22.15-30.333h23.784zM351.772.607c13.756 5.09 21.47 16.05 22.794 30.5l.038-.002c9.765 0 17.685 7.92 17.685 17.686 0 .098-.01.195-.01.292 18.724 2.6 22.135 16.91 22.137 16.91H292.35c-7.788-1.85-13.583-8.847-13.583-17.2 0-9.77 7.918-17.687 17.687-17.687 3.877 0 7.46 1.252 10.377 3.37-.035-.634-.056-1.27-.056-1.914.2-12.45 6.805-23.767 17.75-29.82 1.598-.885 3.365-1.422 5.047-2.133h22.202z" fill="#E3E3E3"/><path d="M680.905 47.945c10.617 0 13.57 4.376 14.29 5.95 0 0 1.592 3.52 8.085 3.52 5.81 0 7.813-2.806 8.17-3.402v-.117h.068c.72-1.574 3.672-5.95 14.29-5.95l.07.002.07-.002c10.616 0 13.57 4.376 14.29 5.95 0 0 1.65 3.52 8.143 3.52 6.495 0 8.183-3.52 8.183-3.52.722-1.574 3.674-5.95 14.29-5.95 10.618 0 13.57 4.376 14.29 5.95 0 0 1.646 3.52 8.14 3.52 6.494 0 8.187-3.52 8.187-3.52.72-1.574 3.672-5.95 14.29-5.95 10.618 0 13.57 4.376 14.29 5.95 0 0 1.64 3.52 8.135 3.52 6.493 0 8.188-3.52 8.188-3.52.72-1.574 3.674-5.95 14.29-5.95s13.57 4.376 14.292 5.95c0 0 1.637 3.52 8.13 3.52s8.19-3.52 8.19-3.52c.72-1.574 3.672-5.95 14.29-5.95 10.618 0 13.57 4.376 14.29 5.95 0 0 1.635 3.52 8.127 3.52 6.494 0 8.197-3.52 8.197-3.52.718-1.574 3.67-5.95 14.288-5.95 10.62 0 13.572 4.376 14.29 5.95 0 0 1.632 3.52 8.124 3.52 6.494 0 8.2-3.52 8.2-3.52.718-1.574 3.67-5.95 14.288-5.95 10.62 0 13.57 4.376 14.29 5.95 0 0 1.63 3.52 8.124 3.52 6.49 0 8.2-3.52 8.2-3.52.72-1.574 3.67-5.95 14.288-5.95 10.617 0 13.57 4.376 14.29 5.95 0 0 1.626 3.52 8.12 3.52 6.492 0 8.203-3.52 8.203-3.52.72-1.574 3.672-5.95 14.29-5.95 10.618 0 13.57 4.376 14.29 5.95 0 0 1.623 3.52 8.117 3.52 6.49 0 8.207-3.52 8.207-3.52.718-1.574 3.67-5.95 14.286-5.95 10.617 0 13.57 4.376 14.29 5.95 0 0 1.62 3.52 8.114 3.52 6.494 0 8.21-3.52 8.21-3.52.722-1.574 3.673-5.95 14.29-5.95 10.62 0 13.572 4.376 14.29 5.95 0 0 1.616 3.52 8.11 3.52s8.213-3.52 8.213-3.52c.72-1.574 3.672-5.95 14.29-5.95 10.618 0 13.57 4.376 14.29 5.95 0 0 1.614 3.52 8.104 3.52 6.496 0 8.22-3.52 8.22-3.52.72-1.574 3.673-5.95 14.29-5.95 10.617 0 13.57 4.376 14.29 5.95 0 0 1.61 3.52 8.105 3.52 6.492 0 8.22-3.52 8.22-3.52.718-1.574 3.67-5.95 14.29-5.95 10.617 0 13.57 4.376 14.29 5.95 0 0 1.61 3.52 8.103 3.52 6.494 0 8.223-3.52 8.223-3.52.72-1.574 3.672-5.95 14.29-5.95 10.616 0 13.57 4.376 14.29 5.95 0 0 1.604 3.52 8.096 3.52 6.497 0 8.23-3.52 8.23-3.52.718-1.574 3.67-5.95 14.29-5.95 10.615 0 13.568 4.376 14.29 5.95 0 0 1.6 3.52 8.095 3.52 6.494 0 8.228-3.52 8.228-3.52.72-1.574 3.672-5.95 14.29-5.95 2.154-.022 4.302.196 6.395.704v426.433H0v-426.2c2.38-.766 4.88-.874 7.355-.938 10.617 0 13.57 4.376 14.29 5.95 0 0 1.64 3.52 8.132 3.52s8.19-3.52 8.19-3.52c.72-1.574 3.673-5.95 14.29-5.95 10.62 0 13.572 4.376 14.29 5.95 0 0 1.637 3.52 8.13 3.52s8.195-3.52 8.195-3.52c.72-1.574 3.672-5.95 14.29-5.95 10.618 0 13.57 4.376 14.29 5.95 0 0 1.632 3.52 8.124 3.52 6.494 0 8.197-3.52 8.197-3.52.72-1.574 3.674-5.95 14.29-5.95 10.617 0 13.57 4.376 14.29 5.95 0 0 1.63 3.52 8.122 3.52 6.493 0 8.2-3.52 8.2-3.52.72-1.574 3.673-5.95 14.29-5.95 10.618 0 13.57 4.376 14.29 5.95 0 0 1.626 3.52 8.12 3.52 6.493 0 8.204-3.52 8.204-3.52.718-1.574 3.67-5.95 14.29-5.95 10.616 0 13.568 4.376 14.29 5.95 0 0 1.62 3.52 8.114 3.52 6.492 0 8.207-3.52 8.207-3.52.72-1.574 3.674-5.95 14.29-5.95 10.617 0 13.57 4.376 14.29 5.95 0 0 1.62 3.52 8.113 3.52 6.494 0 8.21-3.52 8.21-3.52.72-1.574 3.673-5.95 14.29-5.95 10.62 0 13.572 4.376 14.29 5.95 0 0 1.616 3.52 8.11 3.52 6.492 0 8.214-3.52 8.214-3.52.72-1.574 3.672-5.95 14.29-5.95 10.617 0 13.57 4.376 14.29 5.95 0 0 1.612 3.52 8.104 3.52 6.496 0 8.22-3.52 8.22-3.52.72-1.574 3.672-5.95 14.29-5.95 10.617 0 13.57 4.376 14.29 5.95 0 0 1.61 3.52 8.103 3.52 6.493 0 8.22-3.52 8.22-3.52.72-1.574 3.672-5.95 14.29-5.95 10.618 0 13.57 4.376 14.29 5.95 0 0 1.61 3.52 8.102 3.52 6.495 0 8.224-3.52 8.224-3.52.718-1.574 3.67-5.95 14.29-5.95 10.615 0 13.568 4.376 14.29 5.95 0 0 1.603 3.52 8.096 3.52 6.497 0 8.228-3.52 8.228-3.52.72-1.574 3.673-5.95 14.29-5.95 10.616 0 13.57 4.376 14.29 5.95 0 0 1.6 3.52 8.096 3.52 6.495 0 8.23-3.52 8.23-3.52.718-1.574 3.67-5.95 14.29-5.95 10.617 0 13.57 4.376 14.29 5.95 0 0 1.598 3.52 8.09 3.52 6.494 0 8.233-3.52 8.233-3.52.72-1.574 3.672-5.95 14.29-5.95 10.618 0 13.57 4.376 14.29 5.95 0 0 1.595 3.52 8.087 3.52 6.493 0 8.234-3.52 8.234-3.52.72-1.574 3.673-5.95 14.29-5.95z" fill="#47CAAA"/><path d="M677.154 68.454c10.617 0 13.57 4.376 14.29 5.95 0 0 1.592 3.52 8.085 3.52 5.808 0 7.812-2.806 8.17-3.402v-.117h.068c.72-1.574 3.672-5.95 14.29-5.95l.07.002.07-.002c10.616 0 13.57 4.376 14.29 5.95 0 0 1.65 3.52 8.143 3.52 6.495 0 8.183-3.52 8.183-3.52.722-1.574 3.674-5.95 14.29-5.95 10.618 0 13.57 4.376 14.29 5.95 0 0 1.646 3.52 8.14 3.52 6.494 0 8.187-3.52 8.187-3.52.72-1.574 3.672-5.95 14.29-5.95 10.618 0 13.57 4.376 14.29 5.95 0 0 1.64 3.52 8.135 3.52 6.493 0 8.188-3.52 8.188-3.52.72-1.574 3.674-5.95 14.29-5.95s13.57 4.376 14.292 5.95c0 0 1.637 3.52 8.13 3.52 6.49 0 8.19-3.52 8.19-3.52.72-1.574 3.672-5.95 14.29-5.95 10.618 0 13.57 4.376 14.29 5.95 0 0 1.635 3.52 8.127 3.52 6.494 0 8.197-3.52 8.197-3.52.718-1.574 3.67-5.95 14.288-5.95 10.62 0 13.572 4.376 14.29 5.95 0 0 1.632 3.52 8.124 3.52 6.494 0 8.2-3.52 8.2-3.52.718-1.574 3.67-5.95 14.288-5.95 10.617 0 13.57 4.376 14.29 5.95 0 0 1.63 3.52 8.124 3.52 6.49 0 8.2-3.52 8.2-3.52.72-1.574 3.67-5.95 14.288-5.95 10.617 0 13.57 4.376 14.29 5.95 0 0 1.626 3.52 8.12 3.52 6.492 0 8.203-3.52 8.203-3.52.72-1.574 3.672-5.95 14.29-5.95 10.618 0 13.57 4.376 14.29 5.95 0 0 1.623 3.52 8.117 3.52 6.49 0 8.207-3.52 8.207-3.52.718-1.574 3.67-5.95 14.286-5.95 10.617 0 13.57 4.376 14.29 5.95 0 0 1.62 3.52 8.114 3.52 6.494 0 8.21-3.52 8.21-3.52.722-1.574 3.673-5.95 14.29-5.95 10.62 0 13.572 4.376 14.29 5.95 0 0 1.616 3.52 8.11 3.52s8.213-3.52 8.213-3.52c.72-1.574 3.672-5.95 14.29-5.95 10.618 0 13.57 4.376 14.29 5.95 0 0 1.614 3.52 8.104 3.52 6.496 0 8.22-3.52 8.22-3.52.72-1.574 3.673-5.95 14.29-5.95 10.617 0 13.57 4.376 14.29 5.95 0 0 1.61 3.52 8.105 3.52 6.492 0 8.22-3.52 8.22-3.52.718-1.574 3.67-5.95 14.29-5.95 10.617 0 13.57 4.376 14.29 5.95 0 0 1.61 3.52 8.103 3.52 6.494 0 8.223-3.52 8.223-3.52.72-1.574 3.672-5.95 14.29-5.95 10.616 0 13.57 4.376 14.29 5.95 0 0 1.604 3.52 8.096 3.52 6.497 0 8.23-3.52 8.23-3.52.718-1.574 3.67-5.95 14.29-5.95 10.615 0 13.568 4.376 14.29 5.95 0 0 1.6 3.52 8.095 3.52 6.494 0 8.228-3.52 8.228-3.52.72-1.574 3.672-5.95 14.29-5.95 3.307.13 7.206.255 10.145 2.004v407.123H0V68.693c2.335-.26 1.133-.175 3.607-.24 10.617 0 13.57 4.377 14.29 5.95 0 0 1.64 3.52 8.13 3.52 6.494 0 8.193-3.52 8.193-3.52.72-1.573 3.672-5.95 14.29-5.95 10.617 0 13.57 4.377 14.29 5.95 0 0 1.635 3.52 8.127 3.52 6.494 0 8.197-3.52 8.197-3.52.72-1.573 3.672-5.95 14.29-5.95 10.616 0 13.57 4.377 14.29 5.95 0 0 1.63 3.52 8.123 3.52 6.492 0 8.197-3.52 8.197-3.52.72-1.573 3.672-5.95 14.29-5.95 10.618 0 13.57 4.377 14.29 5.95 0 0 1.63 3.52 8.123 3.52 6.492 0 8.2-3.52 8.2-3.52.72-1.573 3.673-5.95 14.29-5.95 10.617 0 13.57 4.377 14.29 5.95 0 0 1.626 3.52 8.12 3.52 6.492 0 8.203-3.52 8.203-3.52.72-1.573 3.672-5.95 14.29-5.95 10.616 0 13.57 4.377 14.29 5.95 0 0 1.623 3.52 8.115 3.52s8.207-3.52 8.207-3.52c.72-1.573 3.674-5.95 14.29-5.95s13.57 4.377 14.29 5.95c0 0 1.62 3.52 8.113 3.52 6.494 0 8.21-3.52 8.21-3.52.72-1.573 3.673-5.95 14.29-5.95 10.62 0 13.57 4.377 14.29 5.95 0 0 1.615 3.52 8.108 3.52 6.494 0 8.214-3.52 8.214-3.52.72-1.573 3.673-5.95 14.29-5.95 10.617 0 13.57 4.377 14.29 5.95 0 0 1.612 3.52 8.104 3.52 6.497 0 8.22-3.52 8.22-3.52.72-1.573 3.672-5.95 14.29-5.95 10.618 0 13.57 4.377 14.29 5.95 0 0 1.61 3.52 8.104 3.52 6.49 0 8.22-3.52 8.22-3.52.718-1.573 3.67-5.95 14.29-5.95 10.617 0 13.57 4.377 14.29 5.95 0 0 1.605 3.52 8.1 3.52 6.497 0 8.226-3.52 8.226-3.52.72-1.573 3.672-5.95 14.287-5.95 10.617 0 13.57 4.377 14.29 5.95 0 0 1.607 3.52 8.1 3.52 6.496 0 8.226-3.52 8.226-3.52.72-1.573 3.672-5.95 14.29-5.95 10.618 0 13.57 4.377 14.29 5.95 0 0 1.604 3.52 8.097 3.52 6.493 0 8.23-3.52 8.23-3.52.718-1.573 3.67-5.95 14.288-5.95 10.62 0 13.572 4.377 14.29 5.95 0 0 1.6 3.52 8.093 3.52s8.233-3.52 8.233-3.52c.72-1.573 3.672-5.95 14.29-5.95 10.617 0 13.57 4.377 14.29 5.95 0 0 1.594 3.52 8.086 3.52s8.233-3.52 8.233-3.52c.72-1.573 3.673-5.95 14.29-5.95z" fill="#4CA4A4"/><text transform="translate(958.629 294.522)"><tspan x="-96.57" y="35" font-family="Helvetica-Bold" font-size="96" fill="#fff">60%</tspan></text><text transform="translate(1164.669 283.818)"><tspan x="-88.61" y="10.5" font-family="Helvetica" font-size="30" fill="#C4EAF4">of the world’s</tspan></text><text transform="translate(1145.787 319.818)"><tspan x="-69.729" y="10.5" font-family="Helvetica" font-size="30" fill="#C4EAF4">population</tspan></text><text transform="translate(1062.161 366.599)"><tspan x="-200.103" y="7" font-family="Helvetica" font-size="21" fill="#fff">mostly from developing countries, does not</tspan></text><text transform="translate(1058.111 396.599)"><tspan x="-196.052" y="7" font-family="Helvetica" font-size="21" fill="#fff">enjoy the potential benefits of the Internet.</tspan></text><text transform="translate(975.459 171.619)"><tspan x="-110.9" y="29.5" font-family="HelveticaNeue-Light" font-size="80" fill="#F6C046">ISOLA</tspan></text><text transform="translate(1100.656 171.619)"><tspan x="-15.3" y="29.5" font-family="HelveticaNeue-Light" font-size="80" fill="#F6C046">-</tspan></text><path d="M862.06 224.596h401M862.06 237.596h401" stroke="#F6C046" stroke-width="2" stroke-miterlimit="10" fill="none"/><path d="M670.504 277.43c0 27.102-41.916 49.07-93.62 49.07-51.707 0-93.622-21.968-93.622-49.07 0-27.1 41.915-49.07 93.62-49.07 51.706 0 93.622 21.97 93.622 49.07zM758.033 288.08c0 19.614-30.334 35.513-67.752 35.513-37.417 0-67.75-15.9-67.75-35.512 0-19.612 30.333-35.51 67.75-35.51 37.42 0 67.753 15.898 67.753 35.51z" fill="#369"/><path d="M719.663 253.925c0 19.613-30.333 35.512-67.75 35.512-37.42 0-67.752-15.9-67.752-35.512 0-19.613 30.334-35.512 67.752-35.512 37.418 0 67.75 15.9 67.75 35.512z" fill="#2288A0"/><path d="M806.918 409.676c0 20.717-31.37 37.512-70.066 37.512s-70.066-16.795-70.066-37.512 31.37-37.512 70.066-37.512 70.066 16.795 70.066 37.512zM386.863 397.98c0 28.627-43.346 51.835-96.817 51.835-53.47 0-96.817-23.208-96.817-51.836 0-28.63 43.345-51.837 96.816-51.837 53.47 0 96.817 23.208 96.817 51.836zM421.96 375.926c0 20.717-31.37 37.512-70.067 37.512-38.696 0-70.066-16.795-70.066-37.512s31.37-37.512 70.066-37.512 70.066 16.795 70.066 37.512z" fill="#369"/><path d="M380.807 388.068c0 25.787-39.883 46.69-89.082 46.69-49.2 0-89.082-20.903-89.082-46.69s39.883-46.69 89.082-46.69c49.2 0 89.082 20.903 89.082 46.69zM413.097 368.205c0 18.66-28.863 33.79-64.467 33.79s-64.467-15.13-64.467-33.79c0-18.66 28.863-33.79 64.467-33.79s64.467 15.13 64.467 33.79z" fill="#9c3"/><path d="M297.104 357.05l39.34-74.322 39.338 74.32z" fill="#A8A9AA"/><path d="M241.377 386.48l52.1-98.426 52.1 98.425z" fill="#D2D3D5"/><g fill="#fff"><path d="M293.067 288.83v43.525h-.02c-.223 6.023-5.165 10.84-11.243 10.84s-11.016-4.82-11.243-10.84h-.02v-.968l22.527-42.557zM293.478 288.054l18.744 35.41c-2.008 2.782-5.416 4.007-8.71 4.17-6.078 0-11.016-4.818-11.243-10.84h-.022v-26.416l1.23-2.324z"/></g><path d="M353.37 390.27h-57.747c0-15.944 12.928-28.872 28.873-28.872 15.95 0 28.875 12.928 28.875 28.873zM377.12 390.27h-36.03c0-9.948 8.065-18.015 18.017-18.015 9.95.003 18.013 8.067 18.013 18.016z" fill="#97B232"/><path d="M761.704 275.47c0 19.613-30.334 35.512-67.752 35.512-37.418 0-67.752-15.9-67.752-35.512 0-19.613 30.334-35.512 67.752-35.512 37.418 0 67.752 15.9 67.752 35.512z" fill="#F6BF35"/><path d="M801.32 399.012c0 18.66-28.864 33.79-64.468 33.79s-64.467-15.13-64.467-33.79c0-18.66 28.863-33.79 64.467-33.79s64.467 15.13 64.467 33.79z" fill="#9c3"/><path d="M422.862 184.924c0 15.1-22.866 27.343-51.073 27.343-28.208 0-51.074-12.242-51.074-27.343 0-15.1 22.866-27.343 51.073-27.343 28.206 0 51.072 12.243 51.072 27.344zM297.517 231.81c0 10.91-16.522 19.756-36.903 19.756-20.38 0-36.903-8.846-36.903-19.757 0-10.912 16.523-19.758 36.904-19.758 20.38 0 36.903 8.846 36.903 19.757z" fill="#369"/><path d="M294.566 222.395c0 9.828-15.2 17.796-33.953 17.796-18.752 0-33.953-7.967-33.953-17.795 0-9.828 15.2-17.796 33.953-17.796 18.752 0 33.953 7.967 33.953 17.795z" fill="#9c3"/><path d="M459.68 187.686c0 10.91-16.52 19.757-36.902 19.757-20.38 0-36.903-8.846-36.903-19.757 0-10.91 16.522-19.757 36.903-19.757 20.38 0 36.903 8.845 36.903 19.756z" fill="#369"/><path d="M418.78 176.43c0 13.604-21.04 24.63-46.992 24.63-25.952 0-46.99-11.026-46.99-24.63 0-13.602 21.038-24.63 46.99-24.63s46.99 11.028 46.99 24.63zM456.73 179.27c0 9.83-15.2 17.797-33.953 17.797-18.752 0-33.953-7.968-33.953-17.796 0-9.827 15.2-17.795 33.953-17.795 18.752 0 33.953 7.968 33.953 17.796zM674.175 264.82c0 27.1-41.915 49.07-93.62 49.07-51.705 0-93.62-21.97-93.62-49.07s41.915-49.07 93.62-49.07c51.705 0 93.62 21.97 93.62 49.07zM723.337 241.315c0 19.613-30.333 35.512-67.75 35.512-37.42 0-67.752-15.9-67.752-35.512 0-19.613 30.333-35.512 67.75-35.512 37.42 0 67.752 15.9 67.752 35.512zM742.212 268.19c0 19.613-30.333 35.512-67.75 35.512-37.42 0-67.752-15.9-67.752-35.512 0-19.613 30.333-35.512 67.75-35.512 37.42 0 67.752 15.9 67.752 35.512z" fill="#9c3"/><path d="M537.437 237.312l39.34-74.32 39.338 74.32z" fill="#A8A9AA"/><path d="M577.71 237.312l52.1-98.425 52.1 98.425z" fill="#D2D3D5"/><g fill="#fff"><path d="M629.4 139.665v43.523h-.022c-.224 6.023-5.164 10.84-11.242 10.84-6.078 0-11.018-4.817-11.243-10.84h-.022v-.965l22.53-42.558zM629.81 138.887l18.744 35.41c-2.008 2.782-5.415 4.007-8.71 4.17-6.078 0-11.018-4.818-11.243-10.84h-.02v-26.413l1.23-2.327z"/></g><path d="M633.692 246.116l39.34-74.32 39.338 74.32z" fill="#A8A9AA"/><path d="M570.704 237.312h-57.75c0-15.946 12.93-28.874 28.875-28.874 15.948 0 28.874 12.928 28.874 28.874z" fill="#97B232"/><path d="M606.883 262.307l25.148-47.51 25.15 47.51z" fill="#BD936C"/><path d="M636.704 273.105h-57.75c0-15.946 12.93-28.874 28.875-28.874 15.948 0 28.874 12.93 28.874 28.875zM660.453 273.105h-36.03c0-9.95 8.065-18.015 18.017-18.015 9.95 0 18.013 8.066 18.013 18.015z" fill="#97B232"/><path d="M691.384 262.307l25.147-47.51 25.152 47.51z" fill="#BD936C"/><path d="M745.287 369.578H705.03c0-11.115 9.015-20.127 20.13-20.127 11.117 0 20.127 9.013 20.127 20.128z" fill="#97B232"/><path d="M730.346 387.607l30.314-57.27 30.317 57.27z" fill="#BD936C"/><path d="M800.666 393.773h-52.258c0-14.432 11.7-26.127 26.13-26.127s26.128 11.698 26.128 26.127z" fill="#97B232"/><path d="M227.433 218.19l20.765-39.228 20.764 39.228z" fill="#D2D3D5"/><path d="M286.167 218.19h-34.044c0-9.4 7.62-17.02 17.02-17.02 9.403 0 17.024 7.62 17.024 17.02z" fill="#97B232"/><path d="M369.293 168.438l20.072-37.92 20.073 37.92z" fill="#A8A9AA"/><path d="M383.103 168.438l31.595-59.69 31.597 59.69z" fill="#D2D3D5"/><path d="M449.37 168.438h-48.75c0-13.46 10.914-24.374 24.376-24.374 13.464 0 24.375 10.913 24.375 24.374z" fill="#97B232"/><path d="M706.902 128.244c0 8.472-12.828 15.34-28.652 15.34-15.824 0-28.652-6.868-28.652-15.34s12.828-15.34 28.652-15.34c15.824 0 28.652 6.868 28.652 15.34z" fill="#2288A0"/><path d="M704.612 121.487c0 7.63-11.803 13.818-26.362 13.818-14.56 0-26.362-6.187-26.362-13.818 0-7.63 11.803-13.818 26.362-13.818 14.56 0 26.362 6.186 26.362 13.817z" fill="#9c3"/><path d="M362.366 89.952c-2.2-3.694-7.387-6.274-12.34-2.354-4.364 3.454-5.926 9.008-3.522 15.014 3.062 7.66 9.498 7.353 9.498 7.353s-4.7-6.354 1.838-8.732c5.056-1.838 6.73-7.586 4.526-11.28z" fill="#933"/><path d="M362.35 82.47c3.41-6.19 17.267-10.563 23.614-7.457 5.027 2.46 7.545 11.452 7.545 11.452l1.558 6.648s2.688 3.898 1.342 7.94c-2.618 7.868-18.424 12.625-25.087 7.687-3.42-2.537-5.82-6.12-6.472-8.174-.65-2.054-6.746-10.403-2.5-18.097zM368.112 99.623s-2.484-1.865-4.384-.18c-1.897 1.682-.17 4.27 1.557 5.41 1.73 1.142 5.096 1.947 5.096 1.947l-2.268-7.177z" fill="#FA9351"/><path d="M390.737 92.38c.357 1.128-.008 2.25-.815 2.506-.806.254-1.75-.455-2.107-1.585-.356-1.128.01-2.25.815-2.505.807-.255 1.75.454 2.107 1.584zM377.74 96.42c.357 1.13-.008 2.252-.815 2.506-.807.255-1.75-.454-2.106-1.584-.358-1.13.007-2.252.814-2.507.807-.254 1.75.455 2.106 1.585z" fill="#494011"/><path d="M390.748 102.76c.435 1.378-1.445 3.2-4.198 4.068-2.753.87-5.338.458-5.772-.918-.435-1.377 1.445-3.198 4.198-4.067 2.753-.87 5.338-.458 5.772.918z" fill="#933"/><path d="M383.06 98.862c.24.756 1.047 1.176 1.803.937.756-.24 1.176-1.047.938-1.803 0 0-.402.67-1.158.908-.758.24-1.58-.043-1.58-.043z" fill="#E27437"/><path d="M374.074 92.176s-.414.31-.775.877c-.552.854-.39 1.447-.473 1.564 0 0-.49-.858.14-1.76.537-.772 1.107-.68 1.107-.68zM388.326 87.516s.52.03 1.135.3c.932.407 1.126.99 1.26 1.04 0 0-.066-.986-1.09-1.388-.878-.344-1.304.048-1.304.048z" fill="#494011"/><path d="M387.343 103.584c1.817.183.81-.034 2.962.87-.966 1.23-2.335 1.846-3.755 2.374-1.126.294-1.596.474-2.922.454-.502-.007-.993-.158-1.49-.237.78-2.29 2.974-3.236 5.205-3.46z" fill="#DB2335"/><path d="M388.02 80.09s.306 6.742-3.523 8.427c-3.83 1.685-11.96 2.35-14.708 6.128-2.45 3.37-.61 7.353-.61 7.353s-1.688-2.604-3.524-2.91c-1.84-.308-2.604.918-2.604.918s-4.626-8.124-1.228-16.7c3.524-8.884 17.16-10.723 22.062-9.343 5.473 1.54 8.733 4.493 9.5 8.12.61 2.91.46 6.434.46 6.434s-4.293-2.298-5.826-8.426z" fill="#933"/><path d="M363.814 87.14c0 1.522-1.234 2.756-2.757 2.756-1.523 0-2.757-1.234-2.757-2.757 0-1.524 1.234-2.758 2.757-2.758 1.523 0 2.757 1.234 2.757 2.757zM363.814 92.5c0 1.524-1.234 2.758-2.757 2.758-1.523 0-2.757-1.234-2.757-2.757 0-1.522 1.234-2.756 2.757-2.756 1.523 0 2.757 1.234 2.757 2.757z" fill="#47CAAA"/><path d="M398.532 277.617l7.47 23.9s-7.93 5.514-15.167 5.284c-5.783-.183-6.778-5.055-6.778-5.055s-4.646-24.714 1.034-31.022c6.895-7.66 11.994 7.077 13.442 6.894z" fill="#F6BF35"/><path d="M366.618 277.083c3.413-6.19 17.27-10.563 23.616-7.456 2.86 1.4 3.576 1.515 4.813 4.16 2.178 4.65 3.528 12.093 3.53 12.093.647 2.055 3.445 5.746 2.102 9.786-2.62 7.87-20.998 13.672-27.66 8.733-3.422-2.538-3.25-7.166-3.9-9.22-.647-2.054-6.744-10.404-2.502-18.097zM372.383 294.237s-2.486-1.866-4.386-.182c-1.896 1.684-.17 4.27 1.56 5.412 1.726 1.142 5.092 1.946 5.092 1.946l-2.267-7.176z" fill="#FA9351"/><path d="M394.485 286.725c.358 1.13-.007 2.252-.814 2.507-.805.255-1.75-.454-2.106-1.583-.357-1.13.007-2.253.814-2.51.807-.254 1.75.455 2.107 1.585zM383.208 290.17c.356 1.128-.01 2.25-.816 2.504-.807.255-1.75-.454-2.106-1.583-.356-1.13.01-2.25.816-2.505.807-.255 1.75.455 2.106 1.584z" fill="#494011"/><path d="M395.046 296c.435 1.377-1.445 3.197-4.198 4.066-2.753.87-5.336.458-5.77-.918-.435-1.376 1.444-3.196 4.197-4.065 2.753-.87 5.337-.46 5.77.918z" fill="#933"/><path d="M387.638 292.434c.24.756 1.046 1.176 1.802.937.756-.238 1.176-1.044.938-1.8 0 0-.402.67-1.16.908-.755.237-1.58-.044-1.58-.044z" fill="#E27437"/><path d="M379.574 285.89s-.414.31-.775.877c-.552.854-.39 1.447-.473 1.564 0 0-.49-.857.14-1.76.538-.772 1.107-.68 1.107-.68z" fill="#494011"/><g><path d="M391.615 296.82c1.824.183.81-.035 2.982.88-.964 1.224-2.332 1.84-3.75 2.366-1.12.293-1.6.475-2.92.455-.512-.007-1.01-.16-1.516-.24.78-2.29 2.974-3.236 5.205-3.46z" fill="#DB2335"/><path d="M373.828 288.647s4.487-3.73 12.87-6.435c4.75-1.532 9.19-1.953 9.19-1.953s-.114-2.184-.918-4.138c-.575-1.395-1.915-3.562-1.915-3.562s1.516.583 2.604 2.91c1.377 2.95 1.53 4.75 1.53 4.75l3.064-.307s-2.3-16.545-19.764-13.328c-14.8 2.726-18.307 13.71-16.773 27.346l-2.068 14.938s1.697 3.415 8.042 3.217c7.354-.23 10.57-3.676 10.57-3.676l-6.434-19.763z" fill="#F6BF35"/><path d="M735.948 388.32c-12.06 4.627-26.736 12.686-26.736 12.686s.374-3.39-3.186-4.848c-2.37-.975-5.43.828-5.034 3.434l2.208 10.11c3.262-.497 8.23-2.272 22.633-5.782 4.764-1.158 10.834-2.69 12.28-2.637l-2.165-12.963zM742.71 392.838c-11.015 6.752-21.706 18.3-21.706 18.3s-.25-3.4-4.016-4.187c-2.51-.522-5.188 1.808-4.322 4.298l4.018 9.537c3.114-1.084 7.676-3.738 21.197-9.818 4.47-2.008 6.06-10.117 7.49-10.324l-2.66-7.805zM748.573 395.926c-.55-8.785-3.256-14.584-3.256-14.584l-1.375-15.5-6.12-1.768-.657-3.68-11.5.057.658 5.68-5.81 2.716 1.804 13.996s1.428 10.75 3.25 20c0 0 23.506 1.084 23.006-6.916z" fill="#FA9351"/><path d="M717.573 397.176l6 8.375 3.25-.624-1.5 1.75 7.75 7s14.25-5.375 16.5-11.875c2.618-7.56-2.75-15.874-2.75-15.874l-23.91 7.666-5.34 3.584z" fill="#369"/><path d="M377.712 345.14c-11.314 6.23-27.943 13.245-27.943 13.245s2.83 1.902 1.65 5.562c-.786 2.438-4.14 3.613-5.873 1.63l-6.302-8.21c2.482-2.17 8.048-5.82 20.02-14.562 3.96-2.89 9.05-6.54 9.938-7.682l8.51 10.018zM363.762 338.416c3.226-8.188 5.5-16 5.5-16l1.375-15.5 6.12-1.77.655-3.677 11.5.054-.655 5.678 5.81 2.717-1.804 13.996s-1.428 10.75-3.25 20c-2.496 12.674-4.62 28.988-4.62 28.988s3.328-.75 5.174 2.62c1.233 2.25-.215 5.49-2.85 5.388l-10.294-1.064c.128-3.295-.315-35.203-.534-36.633-.703 1.265-15.378 3.45-12.128-4.8z" fill="#FA9351"/><path d="M368.33 325.5l-10.94 17.824s3.7 7.314 12.677 11.87c10.11 5.128 16.64 3.542 16.64 3.542l4.46-26.07-22.836-7.166z" fill="#369"/><path d="M540.228 225.102s-3.763-3.193-11.064 2.865c-3.813 3.166-13.345 14.222-13.345 14.222s-4.53.124-6.723 3.703c-1.785 2.91.98 5.86 3.723 5.075 3.02-.867 6.286-4.04 6.286-4.04l14.89-10.82c-.003 0 8.45-4.873 6.232-11.006zM518.823 246.573s-.466 1.575-1.194 2.822c-.897 1.528-1.477 2.206-2.144 2.79-.843.737-2.09.196-1.354-.763.635-.827 1.074-1.944.995-2.56-.08-.618 3.696-2.29 3.696-2.29zM560.83 255.25c-3.225-8.188-5.5-16-5.5-16l-1.374-15.5-6.118-1.77-.657-3.677-11.5.055.658 5.678-5.812 2.717 1.805 13.997s1.035 11.482 3.25 20c3.25 12.5 9.62 30.987 9.62 30.987s-3.328-.75-5.174 2.622c-1.23 2.247.215 5.488 2.853 5.385l10.292-1.063c-.128-3.295-1.34-11.432-3.218-26.137-.62-4.86-1.468-11.067-1.25-12.497.702 1.264 15.377 3.452 12.127-4.798zM546.954 222.772s5.612-2.347 10.69 3.11c3.377 3.63 13.36 15.132 13.36 15.132s4.483.642 6.255 4.45c1.437 3.094-1.647 5.71-4.28 4.615-2.9-1.21-5.783-4.733-5.783-4.733l-14.812-11.422c.002 0-8.332-5.313-5.43-11.153zM567.52 245.027s.282 1.618.866 2.94c.715 1.62 1.212 2.36 1.808 3.015.753.83 2.055.435 1.434-.603-.536-.895-.85-2.056-.696-2.658.147-.602-3.412-2.695-3.412-2.695zM549.896 264.77c.77 1.224 1.65 2.962 5.385 8.583 0 0 4.062 5.544 7.72 3.646 4.962-2.573 1.107-11.914 1.107-11.914-2.46-8.45-7.74-24.945-7.74-24.945l-6.47 24.63zM553.862 189.98c-5.117-4.874-19.563-5.542-24.682-.667-3.417 3.254-3.277 13.91-3.277 13.91v7.056c0 2.154-1.344 3.56 1.155 7.01 4.867 6.715 22.856 6.83 27.724.113 2.498-3.448 2.228-7.924 2.228-10.078-.002-2.155 3.216-11.284-3.148-17.345z" fill="#FA9351"/><path d="M549.42 194.117s-2.105.644-2.912 3.523c-1.227 4.366-8.694 5.286-14.438 5.745-5.676.455-6.09 2.834-6.09 2.834s-5.285-3.984-2.298-11.645c2.552-6.544 9.19-9.575 18.383-10.264 8.48-.635 10.11 3.984 10.11 3.984s5.61.74 6.895 7.276c1.266 6.435-.688 10.57-.688 10.57l-4.48.345s-3.367-2.428-4.48-5.477c-1.15-3.138-.693-5.436-.003-6.89z" fill="#494011"/><path d="M553.613 207.407s1.812-2.528 4.126-1.494c2.315 1.034 1.446 4.02.145 5.63-1.305 1.608-4.27 3.39-4.27 3.39v-7.526h-.002z" fill="#FA9351"/><path d="M532.872 206.602c0 1.185-.685 2.145-1.53 2.145s-1.53-.96-1.53-2.145.685-2.145 1.53-2.145 1.53.96 1.53 2.145zM546.432 206.602c0 1.185-.686 2.145-1.532 2.145s-1.532-.96-1.532-2.145.686-2.145 1.532-2.145 1.532.96 1.532 2.145z" fill="#494011"/><path d="M542.812 216.378c0 1.444-2.34 2.614-5.228 2.614-2.887 0-5.228-1.17-5.228-2.614s2.34-2.614 5.228-2.614c2.887 0 5.228 1.17 5.228 2.614z" fill="#933"/><path d="M538.906 210.404c0 .793-.643 1.436-1.437 1.436s-1.44-.643-1.44-1.436c0 0 .587.517 1.38.517.793 0 1.496-.516 1.496-.516z" fill="#E27437"/><path d="M545.857 201.46s.488.173 1.006.605c.78.65.804 1.263.92 1.35 0 0 .21-.967-.662-1.638-.745-.574-1.263-.316-1.263-.316z" fill="#494011"/><path d="M537.585 215.87c2.09.065 2.876.616 4.265 2.004-1.28.872-2.766 1.042-4.266 1.118-1.825.023-2.697-.334-4.265-1.117 1.03-1.415 2.617-1.84 4.265-2.005z" fill="#DB2335"/><path d="M534.456 256.5l3.375 19.375s2.25 1.625 6.75 1.125 6.376-2.5 6.376-2.5l-.875-8.75L554 273s3.875-.125 6.5-2 4.456-4.375 4.456-4.375l-6-17.125-24.5 7z" fill="#F6BF35"/><path d="M535.83 223.75l5.626 10.625 6.5-12.75s4.25.25 6.625 1.625c2.376 1.375 6.25 6 6.25 6l-2.58 9.25-2.75-2.5 5 15.5s-6.42 4.875-11.92 5.75-14 .75-14 .75l-2.75-19.25-2.124 1.125-4.25-8.625s3.142-3.53 5-4.875c2.25-1.625 5.375-2.625 5.375-2.625z" fill="#fff"/><path d="M521.105 251.27c.553.553.553 1.45 0 2.005l-8.11 8.11c-.552.553-1.448.553-2.003 0l-13.552-13.552c-.553-.554-.553-1.45 0-2.004l8.11-8.11c.554-.554 1.452-.554 2.005 0l13.55 13.55z" fill="#494011"/><g fill="#A8A9AA"><path d="M516.96 249.462c.415.415.415 1.088 0 1.504l-6.273 6.274c-.415.415-1.088.415-1.503 0l-9.633-9.633c-.414-.415-.414-1.088 0-1.503l6.273-6.274c.416-.416 1.09-.416 1.503 0l9.635 9.632zM516.13 255.473c0 .518-.42.937-.936.937-.518 0-.937-.42-.937-.937 0-.517.42-.937.937-.937.517 0 .937.42.937.937z"/></g><path d="M384.365 308.27s3.765-3.192 11.064 2.864c3.812 3.166 13.344 14.224 13.344 14.224s4.53.125 6.722 3.702c1.785 2.91-.98 5.86-3.723 5.075-3.02-.867-6.286-4.04-6.286-4.04l-14.89-10.818c.003-.002-8.447-4.875-6.232-11.008zM405.77 329.74s.467 1.575 1.197 2.82c.896 1.528 1.474 2.206 2.14 2.79.844.736 2.09.195 1.355-.763-.637-.827-1.076-1.944-.995-2.56.08-.618-3.696-2.287-3.696-2.287zM377.478 307.074s-5.55-2.49-10.767 2.835c-3.47 3.54-13.744 14.78-13.744 14.78s-4.5.525-6.367 4.285c-1.522 3.06 1.498 5.75 4.158 4.727 2.93-1.133 5.9-4.582 5.9-4.582l15.103-11.038c.002 0 8.47-5.095 5.718-11.008zM356.35 328.792s-.325 1.61-.942 2.917c-.757 1.6-1.27 2.327-1.885 2.967-.774.81-2.062.38-1.417-.64.56-.88.9-2.03.765-2.638-.134-.608 3.48-2.608 3.48-2.608z" fill="#FA9351"/><path d="M388.33 306.833s.67 5.25-5.25 4.667c-5.938-.585-6.444-6.708-6.444-6.708s-4.25.25-6.625 1.625c-2.374 1.375-6.25 6-6.25 6l3.405 9.083 2.416-1.5-2.75 6.833s4.208 4.602 9.5 6.333c8.67 2.833 15.335 1.5 15.335 1.5l1.082-13.333 2.084 1.5 4.305-8.417s-3.142-3.53-5-4.875c-2.248-1.623-5.804-2.707-5.804-2.707z" fill="#fff"/><path d="M409.938 339.404c0 .78.635 1.418 1.418 1.418h28.283c.78 0 1.416-.637 1.416-1.418V320.24c0-.783-.635-1.417-1.417-1.417h-28.284c-.784 0-1.418.634-1.418 1.417v19.164z" fill="#494011"/><g fill="#A8A9AA"><path d="M411.59 335.196c0 .587.476 1.062 1.062 1.062h25.688c.587 0 1.062-.477 1.062-1.062v-13.624c0-.587-.476-1.063-1.062-1.062h-25.688c-.588 0-1.062.478-1.062 1.063v13.623zM426.433 338.197c0 .517-.42.937-.937.937-.518 0-.937-.42-.937-.937 0-.517.418-.937.936-.937.517 0 .937.42.937.937z"/></g><path d="M492.482 235.16M427.222 312.588" stroke="#fff" stroke-miterlimit="10" fill="none"/><path d="M730.213 367.195s-3.765-3.193-11.064 2.863c-3.815 3.166-13.346 14.223-13.346 14.223s-4.53.126-6.722 3.706c-1.785 2.91.98 5.86 3.723 5.072 3.02-.865 6.285-4.037 6.285-4.037l14.89-10.82s8.45-4.872 6.233-11.005zM736.603 365.25s5.55-2.49 10.767 2.836c3.47 3.54 13.744 14.78 13.744 14.78s4.5.526 6.367 4.288c1.522 3.057-1.497 5.75-4.157 4.725-2.932-1.134-5.9-4.583-5.9-4.583L742.32 376.26c-.002 0-8.47-5.098-5.717-11.01zM757.73 386.97s.324 1.608.94 2.915c.76 1.604 1.272 2.328 1.886 2.97.773.81 2.062.382 1.417-.64-.562-.88-.9-2.033-.766-2.64.138-.606-3.476-2.606-3.476-2.606z" fill="#FA9351"/><path d="M726.244 365.76s-.666 5.25 5.25 4.666c5.94-.586 6.447-6.71 6.447-6.71s4.25.25 6.626 1.626c2.375 1.375 6.25 6 6.25 6l-3.405 9.084-1.963-1.25 4.5 11.625s-3.812 3.624-13.375 4.876c-10.5 1.375-13.66-2.084-13.66-2.084l-1.084-13.332-2.084 1.5-4.303-8.418s3.143-3.53 5-4.875c2.253-1.625 5.804-2.707 5.804-2.707z" fill="#fff"/><path d="M740.04 330.33c-5.485-4.457-19.972-3.308-24.687 1.955-4.01 4.47-1.854 13.603-1.854 13.603l.66 6.943s-1.478 4.27 1.284 7.51c5.384 6.312 23.353 5.545 27.67-1.534 2.22-3.637 1.57-8.615 1.4-10.764-.168-2.147 2.348-12.175-4.473-17.713zM741.14 348.392s1.603-2.66 3.994-1.812c2.39.85 1.76 3.895.59 5.602-1.173 1.704-3.99 3.718-3.99 3.718l-.595-7.508z" fill="#FA9351"/><path d="M717.676 349.907c-.093-1.182.515-2.194 1.358-2.26.844-.067 1.603.837 1.697 2.02.094 1.18-.514 2.194-1.358 2.26-.843.067-1.603-.838-1.696-2.02zM731.207 348.806c-.093-1.18.514-2.193 1.358-2.26.843-.067 1.603.836 1.697 2.018.094 1.18-.514 2.193-1.358 2.26-.843.067-1.603-.836-1.697-2.018z" fill="#494011"/><path d="M726.943 353.226c.062.79-.526 1.483-1.317 1.547-.79.062-1.48-.528-1.545-1.318 0 0 .625.47 1.414.408.79-.066 1.45-.637 1.45-.637z" fill="#E27437"/><path d="M732.877 343.66s.5.132 1.05.522c.83.587.9 1.198 1.022 1.273 0 0 .135-.98-.79-1.58-.79-.513-1.283-.214-1.283-.214z" fill="#494011"/><path d="M723.42 360.495c-.115-1.482.99-2.778 2.475-2.898 1.482-.114 2.782.992 2.898 2.48 0 0-1.175-.884-2.655-.767-1.484.117-2.718 1.185-2.718 1.185z" fill="#E27437"/><path d="M713 344.334s1.694 1.04 4.334-.334c3.83-1.992 3.864-3.647 3.864-3.647s1.973 2.29 5.802 1.98c3.83-.304 5.69-3.513 5.69-3.513s4.44 1.84 5.972 4.9c1.533 3.063 1.533 6.588 1.533 6.588s2.31-4 4.598-3.217c1.958.67 1.39 2.457.766 3.523-1.07 1.838-1.217 4.972-1.217 4.972s10.568-15.934-1.53-25.737c-5.688-4.604-14.862-2.45-14.862-2.45s-6.612-.398-10.612 2.935c-3.32 2.765-6.18 7.262-4.338 14z" fill="#732E30"/><path d="M706.948 385.717l3.267 16.056h24.317l-3.263-16.056zM733.403 400.232h12.42v1.54h-12.42z" fill="#494011"/><path d="M721.53 393.05c0 1.037-.838 1.876-1.874 1.876s-1.875-.84-1.875-1.875c0-1.035.84-1.874 1.876-1.874s1.875.84 1.875 1.875z" fill="#A8A9AA"/><path d="M682.65 366.06c-.024-.834-.06-1.667-.103-2.495" stroke="#fff" stroke-width="5" stroke-miterlimit="10" fill="none"/><path d="M682.198 358.704c-.222-2.44-.516-4.857-.878-7.253" stroke="#fff" stroke-width="5" stroke-dasharray="4.871,4.871" stroke-miterlimit="10" fill="none"/><path d="M680.934 349.047c-.14-.822-.29-1.643-.447-2.46" stroke="#fff" stroke-width="5" stroke-miterlimit="10" fill="none"/><path d="M688.386 358.95l-5.79 6.077-6.075-5.794.122 5.037 6.073 5.79 5.79-6.073z" fill="#fff"/><path d="M666.023 308.013c-17.36-29.82-46.848-51.708-81.706-58.91" stroke="#fff" stroke-width="5" stroke-dasharray="5" stroke-miterlimit="10" fill="none"/><g stroke="#FA9351" stroke-width="3" stroke-miterlimit="10" fill="none"><path d="M656.22 317.727l33.07 15.815M680.662 309.1l-15.813 33.07"/></g><path d="M651.205 407.032c-.708.44-1.417.88-2.128 1.312" stroke="#fff" stroke-width="5" stroke-miterlimit="10" fill="none"/><path d="M644.564 410.983c-30.806 17.36-65.2 23.69-98.3 19.984" stroke="#fff" stroke-width="5" stroke-dasharray="5.228,5.228" stroke-miterlimit="10" fill="none"/><path d="M543.67 430.658c-.827-.105-1.653-.218-2.48-.336" stroke="#fff" stroke-width="5" stroke-miterlimit="10" fill="none"/><path d="M642.122 405.675l8.185 1.87-1.874 8.18 4.265-2.678 1.873-8.18-8.18-1.87z" fill="#fff"/><g stroke="#FA9351" stroke-width="3" stroke-miterlimit="10" fill="none"><path d="M451.574 241.81l-1.256 39.9M470.897 262.39l-39.902-1.26"/></g><g stroke="#fff" stroke-width="5" stroke-miterlimit="10" fill="none"><path d="M468.934 249.955c.784-.28 1.573-.546 2.37-.797"/><path d="M474.87 248.138c1.79-.458 3.607-.845 5.446-1.156" stroke-dasharray="3.712,3.712"/><path d="M482.152 246.7c.823-.117 1.65-.218 2.482-.303"/></g><path d="M425.037 302.438c.14-.825.288-1.645.454-2.46" stroke="#fff" stroke-width="5" stroke-miterlimit="10" fill="none"/><path d="M426.66 295.15c1.602-5.676 3.912-11.022 6.825-15.948" stroke="#fff" stroke-width="5" stroke-dasharray="4.968,4.968" stroke-miterlimit="10" fill="none"/><path d="M434.786 277.092c.45-.702.914-1.394 1.39-2.077" stroke="#fff" stroke-width="5" stroke-miterlimit="10" fill="none"/><path d="M431.883 296.35l-6.692 5.066-5.06-6.695-.693 4.99 5.063 6.693 6.692-5.063z" fill="#fff"/><g stroke="#fff" stroke-width="5" stroke-miterlimit="10" fill="none"><path d="M498.78 417.826c-.76-.338-1.518-.684-2.272-1.032"/><path d="M491.854 414.55c-23.304-11.69-44.107-29.11-60.106-51.787" stroke-dasharray="5.17,5.17"/><path d="M430.27 360.636c-.468-.687-.933-1.38-1.393-2.075"/></g><g stroke="#FA9351" stroke-width="3" stroke-miterlimit="10" fill="none"><path d="M510.632 408.71l15.58 33.183M535.013 417.512l-33.183 15.58"/></g><path d="M371.962 150.474c-11.314 6.23-28.943 12.244-28.943 12.244s2.83 1.902 1.65 5.56c-.786 2.44-4.14 3.616-5.873 1.632l-6.302-8.21c2.482-2.17 9.048-4.82 21.02-13.562 3.96-2.89 9.05-6.54 9.938-7.68l8.51 10.016zM360.762 144.75c3.226-8.188 5.5-16 5.5-16l1.375-15.5 6.12-1.77.655-3.677 11.5.055-.655 5.678 5.243-.203-1.237 16.917s-1.43 10.75-3.25 20c-2.496 12.673-4.62 28.987-4.62 28.987s3.328-.75 5.174 2.622c1.233 2.247-.215 5.488-2.85 5.385l-10.294-1.063c.128-3.295-.315-35.204-.534-36.634-.703 1.265-15.378 3.452-12.128-4.798zM381.38 124.13s-2.406-4.31 4.947-10.302c3.845-3.13 16.532-10.346 16.532-10.346s.996-4.42 4.934-5.88c3.2-1.188 5.56 2.097 4.26 4.633-1.436 2.795-5.178 5.387-5.178 5.387l-13.493 12.52s-6.413 7.35-12.003 3.988zM371.997 121.686s2.328-5.62-3.146-10.68c-3.64-3.364-15.176-13.307-15.176-13.307s-.657-4.483-4.473-6.24c-3.1-1.43-5.703 1.666-4.6 4.295 1.218 2.896 4.752 5.766 4.752 5.766l11.474 14.773s5.343 8.317 11.17 5.393zM352.92 97.63s.232-1.624.09-3.063c-.175-1.762-.417-2.62-.78-3.428-.457-1.023-1.816-1.053-1.547.126.23 1.017.166 2.216-.165 2.742-.33.526 2.4 3.623 2.4 3.623z" fill="#FA9351"/><path d="M369 111.166l3.165.833s.835 8 7.5 8c6.67 0 5.835-6.334 5.835-6.334l4-2 .33 12.833-.58 8.75-5.585 40.082S371.5 175.5 360 169.75c-12.926-6.464-15.55-12.666-17-16.25l22.166-26 1.834-7 2-9.334" fill="#fff"/><path d="M380.6 124.4c0 .883-.716 1.6-1.6 1.6-.884 0-1.6-.717-1.6-1.6 0-.885.716-1.6 1.6-1.6.884 0 1.6.715 1.6 1.6zM379.95 130.4c0 .883-.716 1.6-1.6 1.6-.884 0-1.6-.717-1.6-1.6 0-.885.716-1.6 1.6-1.6.884 0 1.6.715 1.6 1.6z" fill="#47CAAA"/><path d="M412.89 105.545c-.615.484-1.507.377-1.99-.238l-7.092-9.014c-.483-.615-.377-1.507.238-1.99l15.062-11.85c.616-.482 1.507-.376 1.99.238l7.09 9.016c.485.615.378 1.507-.237 1.99l-15.06 11.85z" fill="#494011"/><g fill="#A8A9AA"><path d="M415.176 101.645c-.46.362-1.13.283-1.493-.18l-5.485-6.973c-.36-.46-.283-1.13.18-1.492l10.708-8.423c.46-.363 1.13-.283 1.49.178l5.487 6.974c.363.46.284 1.13-.178 1.492l-10.71 8.423zM410.355 99.177c0 .518-.42.937-.937.937-.518 0-.937-.42-.937-.937 0-.517.42-.937.938-.937.517 0 .937.42.937.937z"/></g><path d="M403.336 103.27s-.127-1.638.11-3.064c.29-1.747.59-2.586 1.004-3.37.524-.99 1.884-.928 1.536.23-.298 1-.312 2.2-.017 2.747.3.547-2.634 3.456-2.634 3.456z" fill="#FA9351"/><path d="M513.544 180.5c-.04-.835-.096-1.667-.16-2.496" stroke="#fff" stroke-width="5" stroke-miterlimit="10" fill="none"/><path d="M512.88 173.347c-1.637-11.918-5.855-23.012-12.077-32.698" stroke="#fff" stroke-width="5" stroke-dasharray="4.683,4.683" stroke-miterlimit="10" fill="none"/><path d="M499.508 138.696c-.472-.688-.95-1.37-1.442-2.04" stroke="#fff" stroke-width="5" stroke-miterlimit="10" fill="none"/><path d="M519.128 173.298l-5.69 6.17-6.167-5.693.203 5.035 6.168 5.69 5.69-6.168z" fill="#fff"/><g stroke="#fff" stroke-width="5" stroke-miterlimit="10" fill="none"><path d="M473.546 114.43c-.72-.422-1.44-.833-2.174-1.234"/><path d="M466.512 110.74c-8.88-4.114-18.626-6.673-28.894-7.325" stroke-dasharray="5.45,5.45"/><path d="M434.89 103.287c-.83-.025-1.664-.038-2.5-.038"/></g><g stroke="#FA9351" stroke-width="3" stroke-miterlimit="10" fill="none"><path d="M480.956 106.527l10.367 35.16M503.722 118.924l-35.16 10.367"/></g></g></g></svg>