<svg xmlns="http://www.w3.org/2000/svg" width="44.043" height="72.333" viewBox="0, 0, 44.043, 72.333"><g fill="#383332"><path d="M31.4 9.417c0 5.2-4.216 9.417-9.417 9.417-5.2 0-9.416-4.216-9.416-9.417 0-5.2 4.216-9.417 9.416-9.417S31.4 4.216 31.4 9.417"/><path d="M29.162 69.477c0 1.578-1.292 2.856-2.887 2.856H17.62c-1.594 0-2.886-1.278-2.886-2.856v-45.35c0-1.577 1.292-2.856 2.886-2.856h8.655c1.595 0 2.887 1.28 2.887 2.857zM7.265 56.5c-1.65 0-2.325-1.17-1.5-2.598l14.705-25.47c.825-1.43 2.175-1.43 3 0l14.705 25.47c.825 1.43.15 2.598-1.5 2.598zM18.45 21.807c-1.268-.917-3.04-.63-3.957.638L.537 41.762c-.916 1.27-.63 3.04.638 3.958l.943.68c1.27.918 3.04.632 3.958-.637l13.956-19.317c.916-1.27.63-3.04-.638-3.958zM25.592 21.807c1.27-.917 3.042-.63 3.958.638l13.956 19.317c.916 1.27.63 3.04-.638 3.958l-.943.68c-1.27.918-3.04.632-3.958-.637L24.01 26.446c-.915-1.27-.63-3.04.64-3.958z"/></g></svg>